<?xml version="1.0" ?>
<svg xmlns="http://www.w3.org/2000/svg" version="1.1" width="136" height="128">
  <defs/>
  <g>
    <path d="M 131.71661376953125 92.26629638671875 C 132.9107208251953 104.20848083496094 112.89103698730469 118.02672576904297 67.16638946533203 119.08232879638672 C 17.074542999267578 117.25423431396484 3.1341962814331055 101.5790786743164 4.300564765930176 92.35572814941406 C 5.998257637023926 29.714048385620117 35.1987190246582 7.598565101623535 71.59434509277344 9.148218154907227 C 102.93824005126953 10.686829566955566 129.99334716796875 31.780990600585938 131.71661376953125 92.26629638671875" stroke-width="0.0" fill="rgb(252, 186, 0)" opacity="0.8877316" stroke="rgb(95, 242, 186)" stroke-opacity="0.5986585" stroke-linecap="round" stroke-linejoin="round"/>
    <path d="M 99.80924224853516 49.019737243652344 C 99.7317123413086 53.88514709472656 95.83328247070312 56.47706985473633 93.4809341430664 56.609615325927734 C 88.05326080322266 58.088775634765625 81.24054718017578 52.656105041503906 82.91260528564453 42.86151885986328 C 84.25331115722656 45.054866790771484 81.42232513427734 40.4820556640625 89.05841827392578 38.24127197265625 C 95.17640686035156 37.93317794799805 99.97369384765625 42.3892822265625 99.80924224853516 49.019737243652344" stroke-width="0.0" fill="rgb(0, 0, 251)" opacity="0.9915324" stroke="rgb(39, 39, 14)" stroke-opacity="0.8661761" stroke-linecap="round" stroke-linejoin="round"/>
    <path d="M 81.412109375 89.50496673583984 C 80.58531951904297 96.03781127929688 76.31002044677734 101.30992126464844 65.53456115722656 100.31520080566406 C 56.609832763671875 96.33982849121094 60.03131103515625 97.58501434326172 56.81059265136719 92.81237030029297 C 54.84250259399414 81.73815155029297 63.44981384277344 76.89891815185547 68.02088165283203 77.13194274902344 C 74.71184539794922 76.6475830078125 80.2441177368164 80.75304412841797 81.412109375 89.50496673583984" stroke-width="0.0" fill="rgb(254, 1, 0)" opacity="0.9950465" stroke="rgb(153, 180, 5)" stroke-opacity="0.96990985" stroke-linecap="round" stroke-linejoin="round"/>
    <path d="M 50.62843322753906 51.61391067504883 C 50.886287689208984 56.256710052490234 47.29933166503906 62.40513229370117 41.24306869506836 62.028099060058594 C 37.66676330566406 62.15751647949219 33.76449203491211 59.8976936340332 33.36103820800781 54.142948150634766 C 33.27554702758789 47.6883544921875 38.44186019897461 43.27070236206055 43.40867614746094 43.3808708190918 C 46.87339401245117 43.56523513793945 50.998382568359375 46.02881622314453 50.62843322753906 51.61391067504883" stroke-width="0.0" fill="rgb(17, 222, 8)" opacity="0.9348241" stroke="rgb(212, 54, 46)" stroke-opacity="0.1834045" stroke-linecap="round" stroke-linejoin="round"/>
    <path d="M 104.56194305419922 59.7420654296875 C 54.10390853881836 106.99092102050781 43.538475036621094 37.63265609741211 6.848309516906738 63.65742111206055 C 16.64153289794922 146.6282196044922 50.22126007080078 106.24925994873047 59.77792739868164 69.36506652832031 C 39.2387580871582 74.67247772216797 37.96848678588867 73.21917724609375 53.171993255615234 70.74586486816406 C 42.21455764770508 66.69768524169922 45.10414123535156 57.371681213378906 104.56194305419922 59.7420654296875" stroke-width="0.0" fill="rgb(251, 193, 25)" opacity="0.60970616" stroke="rgb(110, 74, 156)" stroke-opacity="0.13949387" stroke-linecap="round" stroke-linejoin="round"/>
    <path d="M 45.24224090576172 60.967342376708984 C 57.48664093017578 42.987483978271484 37.21315383911133 38.90969467163086 36.39401626586914 50.97441864013672 C 37.60629653930664 38.46286392211914 57.61555862426758 42.7265625 44.92839813232422 61.86388397216797 C 49.48400115966797 57.429527282714844 52.20539474487305 51.4912223815918 48.375701904296875 46.214515686035156 C 33.90671157836914 36.37034606933594 26.378110885620117 65.36634826660156 45.24224090576172 60.967342376708984" stroke-width="0.0" fill="rgb(0, 255, 0)" opacity="1.0" stroke="rgb(116, 200, 50)" stroke-opacity="0.5142344" stroke-linecap="round" stroke-linejoin="round"/>
    <path d="M 142.6852264404297 86.80722045898438 C 139.37901306152344 88.08702850341797 138.10650634765625 85.72625732421875 142.4690399169922 81.19735717773438 C 140.572265625 84.18748474121094 139.37754821777344 86.81417846679688 138.77825927734375 89.36663055419922 C 138.13592529296875 87.10481262207031 138.82472229003906 87.19209289550781 143.465576171875 87.21912384033203 C 137.79774475097656 83.67031860351562 136.66810607910156 82.79087829589844 142.6852264404297 86.80722045898438" stroke-width="0.0" fill="rgb(255, 255, 195)" opacity="0.8502159" stroke="rgb(151, 11, 154)" stroke-opacity="0.17052412" stroke-linecap="round" stroke-linejoin="round"/>
    <path d="M 7.021050930023193 120.04535675048828 C 6.898315906524658 121.52436065673828 7.043382167816162 121.0271224975586 8.914048194885254 121.35599517822266 C 0.7427271604537964 120.37738037109375 2.6407546997070312 120.59784698486328 5.347609043121338 130.60787963867188 C 3.9771196842193604 126.86341094970703 2.178899049758911 119.0379867553711 2.978590965270996 121.1945571899414 C 5.52561616897583 121.48296356201172 1.5497921705245972 119.42501068115234 7.021050930023193 120.04535675048828" stroke-width="0.0" fill="rgb(255, 255, 255)" opacity="0.07244796" stroke="rgb(246, 206, 77)" stroke-opacity="0.09767211" stroke-linecap="round" stroke-linejoin="round"/>
  </g>
</svg>
