<?xml version="1.0" ?>
<svg xmlns="http://www.w3.org/2000/svg" version="1.1" width="136" height="128">
  <defs/>
  <g>
    <path d="M 123.48069763183594 88.74315643310547 C 142.60299682617188 105.44141387939453 125.68943786621094 124.4742431640625 66.32992553710938 128.29986572265625 C 58.14628601074219 126.74527740478516 1.7150671482086182 124.25739288330078 4.976825714111328 97.71574401855469 C 1.37577486038208 45.4340705871582 30.342283248901367 3.090214490890503 74.93508911132812 0.033055391162633896 C 109.14268493652344 3.5325286388397217 144.9844512939453 22.296716690063477 123.48069763183594 88.74315643310547" stroke-width="0.0" fill="rgb(252, 185, 0)" opacity="0.8902762" stroke="rgb(95, 242, 186)" stroke-opacity="0.5986585" stroke-linecap="round" stroke-linejoin="round"/>
    <path d="M 96.06723022460938 62.88478469848633 C 103.63985443115234 80.48151397705078 90.30340576171875 101.35047149658203 73.0141830444336 98.20182800292969 C 46.57003402709961 93.09749603271484 61.12299346923828 73.77273559570312 30.562152862548828 75.42462158203125 C 13.194223403930664 70.93191528320312 28.2392635345459 24.649246215820312 51.42987060546875 55.00524139404297 C 58.53434371948242 63.234947204589844 82.30497741699219 37.80892562866211 96.06723022460938 62.88478469848633" stroke-width="0.0" fill="rgb(254, 1, 0)" opacity="0.9943268" stroke="rgb(39, 39, 14)" stroke-opacity="0.8661761" stroke-linecap="round" stroke-linejoin="round"/>
    <path d="M 61.76808547973633 24.705129623413086 C 61.510292053222656 33.14448547363281 55.84648132324219 37.84236145019531 50.66985321044922 39.58406448364258 C 40.23407745361328 41.95814895629883 36.59214782714844 35.3510627746582 36.23179244995117 30.43140983581543 C 35.781959533691406 21.40715980529785 44.11936569213867 14.16710090637207 51.054222106933594 14.428932189941406 C 57.0452766418457 14.147099494934082 61.522830963134766 18.488100051879883 61.76808547973633 24.705129623413086" stroke-width="0.0" fill="rgb(0, 251, 0)" opacity="0.99400604" stroke="rgb(153, 180, 5)" stroke-opacity="0.96990985" stroke-linecap="round" stroke-linejoin="round"/>
    <path d="M 93.63713073730469 36.367462158203125 C 95.0364990234375 44.08792495727539 89.48468780517578 48.22106170654297 86.3923568725586 47.71898651123047 C 82.33877563476562 48.41703796386719 79.70410919189453 42.98283386230469 79.7152328491211 42.42041015625 C 78.18346405029297 36.123756408691406 82.6171875 30.855632781982422 86.30818176269531 31.089614868164062 C 91.35332489013672 30.45530128479004 92.83875274658203 34.2083740234375 93.63713073730469 36.367462158203125" stroke-width="0.0" fill="rgb(0, 0, 251)" opacity="0.9965137" stroke="rgb(212, 54, 46)" stroke-opacity="0.1834045" stroke-linecap="round" stroke-linejoin="round"/>
    <path d="M 77.39556121826172 50.300376892089844 C 78.35628509521484 49.543235778808594 76.49983978271484 50.02033996582031 81.2264633178711 46.926395416259766 C 76.3970947265625 41.04338073730469 85.66395568847656 48.368141174316406 82.89762878417969 47.80209732055664 C 80.80567932128906 49.120567321777344 84.14599609375 44.177120208740234 78.11054229736328 49.21859359741211 C 77.73099517822266 49.62622833251953 77.75213623046875 50.115150451660156 77.39556121826172 50.300376892089844" stroke-width="0.0" fill="rgb(161, 124, 99)" opacity="0.7660119" stroke="rgb(77, 133, 110)" stroke-opacity="0.29122913" stroke-linecap="round" stroke-linejoin="round"/>
    <path d="M 119.89944458007812 82.35804748535156 C 119.91091918945312 80.6543960571289 119.02890014648438 84.85588073730469 117.95556640625 90.19502258300781 C 126.68379211425781 76.22999572753906 125.16781616210938 83.6612777709961 118.466796875 92.1250228881836 C 126.9048080444336 81.22444152832031 125.16242980957031 80.74932861328125 116.95865631103516 90.35120391845703 C 117.79058837890625 91.8465347290039 118.2929458618164 92.70600128173828 119.89944458007812 82.35804748535156" stroke-width="0.0" fill="rgb(249, 194, 33)" opacity="0.91500187" stroke="rgb(156, 35, 74)" stroke-opacity="0.36636186" stroke-linecap="round" stroke-linejoin="round"/>
    <path d="M 119.68142700195312 83.46590423583984 C 119.74664306640625 80.53343963623047 119.49559020996094 84.76058197021484 118.68893432617188 61.46392822265625 C 125.25077819824219 78.73038482666016 127.20121765136719 104.30634307861328 129.91600036621094 106.0698471069336 C 117.09359741210938 72.75523376464844 115.98177337646484 70.30823516845703 116.80142974853516 90.62460327148438 C 117.96809387207031 91.95683288574219 119.09510040283203 92.96693420410156 119.68142700195312 83.46590423583984" stroke-width="0.0" fill="rgb(252, 194, 25)" opacity="0.87259495" stroke="rgb(116, 200, 50)" stroke-opacity="0.5142344" stroke-linecap="round" stroke-linejoin="round"/>
    <path d="M 85.80885314941406 42.502899169921875 C 82.12798309326172 42.01780319213867 79.5881576538086 41.68619918823242 89.12779235839844 42.93439865112305 C 89.50379180908203 42.951744079589844 87.34688568115234 42.709381103515625 85.80325317382812 42.49971008300781 C 84.7414779663086 46.640926361083984 84.70304107666016 46.837406158447266 85.35922241210938 44.28451919555664 C 84.06137084960938 49.11891555786133 84.681640625 46.89725875854492 85.80885314941406 42.502899169921875" stroke-width="0.0" fill="rgb(39, 27, 217)" opacity="0.8731427" stroke="rgb(151, 11, 154)" stroke-opacity="0.17052412" stroke-linecap="round" stroke-linejoin="round"/>
  </g>
</svg>
