<?xml version="1.0" ?>
<svg xmlns="http://www.w3.org/2000/svg" version="1.1" width="136" height="128">
  <defs/>
  <g>
    <path d="M 129.8754119873047 75.62165832519531 C 122.82147979736328 88.94427490234375 149.43309020996094 103.26998138427734 96.48495483398438 116.79946899414062 C 39.39664077758789 125.5667953491211 4.4475274085998535 107.95448303222656 4.8557257652282715 95.34123992919922 C 0.10434833914041519 47.33211135864258 32.247047424316406 5.503171920776367 77.8388900756836 9.105281829833984 C 107.34668731689453 7.648464202880859 139.34597778320312 30.98270034790039 129.8754119873047 75.62165832519531" stroke-width="0.0" fill="rgb(251, 186, 0)" opacity="0.8892175" stroke="rgb(95, 242, 186)" stroke-opacity="0.5986585" stroke-linecap="round" stroke-linejoin="round"/>
    <path d="M 109.02253723144531 98.25252532958984 C 95.61727905273438 87.46253967285156 95.66989135742188 87.51754760742188 102.34136199951172 92.95563507080078 C 77.99589538574219 76.38141632080078 58.09275436401367 101.63802337646484 55.085296630859375 101.95672607421875 C 39.54655456542969 98.70767211914062 69.60414123535156 78.12915802001953 85.39909362792969 79.25598907470703 C 99.6808853149414 77.73883056640625 123.96955108642578 94.34219360351562 109.02253723144531 98.25252532958984" stroke-width="0.0" fill="rgb(250, 0, 0)" opacity="0.9870571" stroke="rgb(39, 39, 14)" stroke-opacity="0.8661761" stroke-linecap="round" stroke-linejoin="round"/>
    <path d="M 75.24864959716797 53.470638275146484 C 82.85848999023438 62.17228698730469 74.47218322753906 73.4007568359375 67.8900375366211 72.2450942993164 C 63.08216857910156 73.06307220458984 58.42353820800781 67.00225830078125 58.679351806640625 62.71473693847656 C 59.014949798583984 53.355960845947266 59.61408615112305 59.78793716430664 71.87922668457031 55.28083419799805 C 76.95488739013672 52.011173248291016 77.53756713867188 56.26478958129883 75.24864959716797 53.470638275146484" stroke-width="0.0" fill="rgb(2, 250, 1)" opacity="0.99997026" stroke="rgb(153, 180, 5)" stroke-opacity="0.96990985" stroke-linecap="round" stroke-linejoin="round"/>
    <path d="M 117.47135162353516 63.894493103027344 C 118.72355651855469 71.27914428710938 113.24490356445312 75.06950378417969 110.52523040771484 75.57491302490234 C 104.28034210205078 76.7226333618164 100.21075439453125 71.49836730957031 100.73106384277344 64.54888916015625 C 102.05814361572266 58.960819244384766 104.92394256591797 56.8752326965332 106.22262573242188 56.99576950073242 C 110.45053100585938 63.05675506591797 120.46319580078125 64.0105209350586 117.47135162353516 63.894493103027344" stroke-width="0.0" fill="rgb(0, 0, 250)" opacity="0.9949899" stroke="rgb(212, 54, 46)" stroke-opacity="0.1834045" stroke-linecap="round" stroke-linejoin="round"/>
    <path d="M 107.64730072021484 81.45064544677734 C 105.58163452148438 77.57862091064453 108.01771545410156 78.97610473632812 115.28135681152344 80.3972396850586 C 118.7381820678711 81.24433898925781 117.4008560180664 80.85372924804688 113.94438934326172 80.1148681640625 C 116.14720153808594 80.5845718383789 117.68556213378906 80.9206771850586 109.17861938476562 79.0889663696289 C 106.0389175415039 78.4805679321289 106.86101531982422 79.81045532226562 107.64730072021484 81.45064544677734" stroke-width="0.0" fill="rgb(197, 154, 73)" opacity="0.8708614" stroke="rgb(77, 133, 110)" stroke-opacity="0.29122913" stroke-linecap="round" stroke-linejoin="round"/>
    <path d="M 50.66048812866211 -6.288749694824219 C 50.391292572021484 -1.7652795314788818 55.766456604003906 0.1339961141347885 60.80246353149414 4.1285080909729 C 61.8931999206543 4.635222434997559 57.86449432373047 9.716806411743164 64.43669128417969 13.621635437011719 C 53.11202621459961 11.25413990020752 44.13926315307617 22.191362380981445 43.786643981933594 10.21866512298584 C 54.634498596191406 2.3871207237243652 59.28181076049805 0.8533840775489807 50.66048812866211 -6.288749694824219" stroke-width="0.0" fill="rgb(254, 245, 238)" opacity="0.0006413913" stroke="rgb(156, 35, 74)" stroke-opacity="0.36636186" stroke-linecap="round" stroke-linejoin="round"/>
    <path d="M 54.28787612915039 6.039831638336182 C 57.3663444519043 5.452502727508545 54.64595413208008 6.302248477935791 59.44293975830078 5.903183460235596 C 59.20700454711914 5.865901947021484 65.72183990478516 5.516979694366455 66.71002197265625 10.390280723571777 C 56.810516357421875 8.107531547546387 31.02401351928711 23.985454559326172 38.11859893798828 17.092788696289062 C 58.88443374633789 7.333530426025391 57.29467010498047 5.366247653961182 54.28787612915039 6.039831638336182" stroke-width="0.0" fill="rgb(253, 218, 145)" opacity="0.020922167" stroke="rgb(116, 200, 50)" stroke-opacity="0.5142344" stroke-linecap="round" stroke-linejoin="round"/>
    <path d="M 82.96004486083984 5.043320178985596 C 84.84668731689453 4.736850738525391 81.25040435791016 5.346639633178711 83.9738998413086 4.947398662567139 C 84.074462890625 3.292731285095215 84.14014434814453 2.3196403980255127 84.0523452758789 3.8734138011932373 C 86.68832397460938 4.4342780113220215 89.05447387695312 3.7197320461273193 85.07752227783203 0.690095067024231 C 82.22494506835938 -7.275399208068848 83.19029998779297 -0.3117450475692749 82.96004486083984 5.043320178985596" stroke-width="0.0" fill="rgb(255, 255, 255)" opacity="0.07214387" stroke="rgb(154, 43, 16)" stroke-opacity="0.94888556" stroke-linecap="round" stroke-linejoin="round"/>
  </g>
</svg>
