<?xml version="1.0" ?>
<svg xmlns="http://www.w3.org/2000/svg" version="1.1" width="136" height="128">
  <defs/>
  <g>
    <path d="M 129.22166442871094 86.3416748046875 C 143.68316650390625 113.44847106933594 79.04076385498047 126.38846588134766 35.58308029174805 116.38785552978516 C 0.4559902846813202 106.69046783447266 2.934969663619995 99.08380126953125 4.632284164428711 73.99164581298828 C 10.718653678894043 27.743066787719727 50.7304573059082 -5.911983013153076 105.46316528320312 13.947770118713379 C 148.99810791015625 41.14966583251953 124.92273712158203 84.21585845947266 129.22166442871094 86.3416748046875" stroke-width="0.0" fill="rgb(252, 187, 0)" opacity="0.8917135" stroke="rgb(95, 242, 186)" stroke-opacity="0.5986585" stroke-linecap="round" stroke-linejoin="round"/>
    <path d="M 88.78401184082031 48.651859283447266 C 89.12823486328125 55.7299919128418 84.0790023803711 60.42837905883789 79.88494873046875 60.09688949584961 C 76.09249877929688 60.29058837890625 71.91847229003906 57.20021438598633 72.0284423828125 50.38339614868164 C 72.5805435180664 46.01336669921875 75.95027160644531 38.95218276977539 83.99359893798828 41.34489059448242 C 84.3851547241211 42.70286178588867 86.85565185546875 40.82936096191406 88.78401184082031 48.651859283447266" stroke-width="0.0" fill="rgb(0, 0, 251)" opacity="0.99961054" stroke="rgb(39, 39, 14)" stroke-opacity="0.8661761" stroke-linecap="round" stroke-linejoin="round"/>
    <path d="M 49.76597595214844 39.074249267578125 C 51.8862419128418 48.807743072509766 44.17722702026367 51.370689392089844 44.93291473388672 51.60530090332031 C 36.59638595581055 55.20762634277344 32.83950424194336 48.194061279296875 33.93301773071289 43.29429626464844 C 33.675621032714844 40.56642150878906 37.684295654296875 34.01594161987305 44.045658111572266 34.400367736816406 C 44.383724212646484 35.173316955566406 47.40739822387695 33.89363479614258 49.76597595214844 39.074249267578125" stroke-width="0.0" fill="rgb(0, 253, 0)" opacity="0.99999535" stroke="rgb(153, 180, 5)" stroke-opacity="0.96990985" stroke-linecap="round" stroke-linejoin="round"/>
    <path d="M 76.69247436523438 74.49146270751953 C 78.36247253417969 83.58795928955078 72.73296356201172 77.74693298339844 53.22868728637695 74.8831787109375 C 41.9405632019043 72.54768371582031 36.02296829223633 73.19647216796875 34.76124954223633 71.51966857910156 C 31.114606857299805 62.68898391723633 45.61184310913086 69.15336608886719 63.07963562011719 69.84183502197266 C 43.89331817626953 68.63911437988281 62.69182586669922 69.33390808105469 76.69247436523438 74.49146270751953" stroke-width="0.0" fill="rgb(246, 0, 1)" opacity="0.98927796" stroke="rgb(212, 54, 46)" stroke-opacity="0.1834045" stroke-linecap="round" stroke-linejoin="round"/>
    <path d="M 61.827049255371094 0.1056123599410057 C 62.703529357910156 9.008525848388672 62.251949310302734 11.12078857421875 67.59014892578125 11.541986465454102 C 69.42449188232422 5.252407550811768 75.55654907226562 3.4231414794921875 74.53546905517578 -2.2311267852783203 C 67.34843444824219 -3.048126220703125 63.74284362792969 -8.560826301574707 70.23255920410156 -9.258381843566895 C 72.24412536621094 -7.996853828430176 69.30657196044922 -6.2472991943359375 61.827049255371094 0.1056123599410057" stroke-width="0.0" fill="rgb(255, 255, 255)" opacity="0.011059665" stroke="rgb(77, 133, 110)" stroke-opacity="0.29122913" stroke-linecap="round" stroke-linejoin="round"/>
    <path d="M 66.53802490234375 0.38100236654281616 C 67.74064636230469 2.2726783752441406 66.54100036621094 3.042076826095581 66.27528381347656 4.968603134155273 C 71.42120361328125 0.903324544429779 70.94837188720703 -1.7930951118469238 69.62815856933594 -3.7141671180725098 C 60.07845687866211 -2.003136396408081 59.039127349853516 -1.7877241373062134 77.76118469238281 -5.021416664123535 C 80.1183853149414 -5.71103048324585 76.3260269165039 -2.8264636993408203 66.53802490234375 0.38100236654281616" stroke-width="0.0" fill="rgb(255, 255, 255)" opacity="0.85074127" stroke="rgb(156, 35, 74)" stroke-opacity="0.36636186" stroke-linecap="round" stroke-linejoin="round"/>
    <path d="M 64.45854187011719 0.19839999079704285 C 62.079952239990234 -0.2338733822107315 61.63910675048828 1.3021310567855835 68.49662017822266 3.621985673904419 C 74.87891387939453 3.575585126876831 72.21601867675781 0.7214807271957397 71.36347198486328 -0.5438105463981628 C 66.87760162353516 1.723592758178711 67.03960418701172 3.1464755535125732 68.40503692626953 3.54582142829895 C 73.47996520996094 2.5902600288391113 76.8795166015625 0.7771697044372559 64.45854187011719 0.19839999079704285" stroke-width="0.0" fill="rgb(255, 255, 255)" opacity="0.89990944" stroke="rgb(116, 200, 50)" stroke-opacity="0.5142344" stroke-linecap="round" stroke-linejoin="round"/>
    <path d="M 72.18270874023438 111.56751251220703 C 69.7563247680664 112.67442321777344 67.52123260498047 114.6985092163086 71.25206756591797 113.90699005126953 C 81.56288146972656 113.57665252685547 78.74202728271484 112.53562927246094 77.08450317382812 112.34527587890625 C 68.46631622314453 110.18177795410156 71.098876953125 114.57063293457031 67.35123443603516 114.07195281982422 C 75.45616912841797 113.85755157470703 85.69711303710938 113.21626281738281 72.18270874023438 111.56751251220703" stroke-width="0.0" fill="rgb(250, 198, 41)" opacity="0.9134328" stroke="rgb(151, 11, 154)" stroke-opacity="0.17052412" stroke-linecap="round" stroke-linejoin="round"/>
  </g>
</svg>
