<?xml version="1.0" ?>
<svg xmlns="http://www.w3.org/2000/svg" version="1.1" width="136" height="128">
  <defs/>
  <g>
    <path d="M 131.22593688964844 93.4072265625 C 133.14492797851562 108.525146484375 88.6395263671875 125.37498474121094 35.64164352416992 114.81907653808594 C -1.3335555791854858 104.41339874267578 3.132840156555176 95.64933013916016 6.175741672515869 70.86351776123047 C 14.534431457519531 19.450368881225586 46.47856903076172 5.288929462432861 81.68970489501953 11.095495223999023 C 125.60307312011719 19.536476135253906 132.00881958007812 70.36969757080078 131.22593688964844 93.4072265625" stroke-width="0.0" fill="rgb(252, 186, 0)" opacity="0.888023" stroke="rgb(95, 242, 186)" stroke-opacity="0.5986585" stroke-linecap="round" stroke-linejoin="round"/>
    <path d="M 103.39756774902344 64.80663299560547 C 107.12657165527344 64.5945053100586 105.64225769042969 69.52967834472656 103.39321899414062 70.32015228271484 C 76.7000503540039 69.73017883300781 74.44536590576172 72.27075958251953 75.48889923095703 65.26863098144531 C 75.57008361816406 62.649620056152344 84.74596405029297 65.13290405273438 75.27297973632812 63.36581802368164 C 89.14390563964844 63.69325256347656 112.66067504882812 62.753517150878906 103.39756774902344 64.80663299560547" stroke-width="0.0" fill="rgb(1, 1, 251)" opacity="0.99999386" stroke="rgb(39, 39, 14)" stroke-opacity="0.8661761" stroke-linecap="round" stroke-linejoin="round"/>
    <path d="M 85.26190185546875 91.79856872558594 C 82.09629821777344 95.37239837646484 85.21488189697266 93.94464874267578 66.96662902832031 94.28970336914062 C 49.56505584716797 93.90625 53.04774856567383 95.60272979736328 49.82151412963867 91.13826751708984 C 51.504966735839844 84.97573852539062 47.988136291503906 87.21073913574219 84.35665130615234 86.66529083251953 C 80.43348693847656 87.99690246582031 85.76628875732422 85.3895034790039 85.26190185546875 91.79856872558594" stroke-width="0.0" fill="rgb(253, 2, 0)" opacity="0.9999885" stroke="rgb(153, 180, 5)" stroke-opacity="0.96990985" stroke-linecap="round" stroke-linejoin="round"/>
    <path d="M 57.07052993774414 64.0571060180664 C 60.776039123535156 72.54519653320312 51.15556716918945 70.19257354736328 50.58222579956055 70.61891174316406 C 29.545976638793945 70.20333862304688 27.363079071044922 72.2495346069336 27.720808029174805 65.55130767822266 C 30.76866912841797 60.7765007019043 36.20161437988281 65.84042358398438 32.007537841796875 63.19368362426758 C 32.03697204589844 63.89379119873047 57.42506408691406 62.776004791259766 57.07052993774414 64.0571060180664" stroke-width="0.0" fill="rgb(0, 250, 0)" opacity="0.99482405" stroke="rgb(212, 54, 46)" stroke-opacity="0.1834045" stroke-linecap="round" stroke-linejoin="round"/>
    <path d="M 4.947066307067871 78.57916259765625 C -3.946619749069214 87.50334930419922 -5.5102081298828125 87.91841125488281 -7.78424072265625 93.83301544189453 C -0.2509302794933319 91.1009750366211 -10.858580589294434 94.3995361328125 -6.00277042388916 88.23455047607422 C -1.903234839439392 89.61117553710938 1.1789751052856445 91.51988220214844 -2.839698553085327 91.14118957519531 C 3.9144012928009033 98.85044860839844 5.508209228515625 102.95169830322266 4.947066307067871 78.57916259765625" stroke-width="0.0" fill="rgb(255, 255, 255)" opacity="0.41044754" stroke="rgb(77, 133, 110)" stroke-opacity="0.29122913" stroke-linecap="round" stroke-linejoin="round"/>
    <path d="M 98.61817169189453 18.65984344482422 C 79.12625122070312 15.15483570098877 118.51412200927734 14.31440544128418 123.49889373779297 58.22100830078125 C -13.541800498962402 78.0772705078125 17.395849227905273 32.566898345947266 27.255075454711914 27.023447036743164 C 46.494537353515625 10.042708396911621 72.90016174316406 17.60070037841797 56.09505081176758 20.729957580566406 C 48.15053176879883 1.3629955053329468 94.52767181396484 13.508458137512207 98.61817169189453 18.65984344482422" stroke-width="0.0" fill="rgb(251, 193, 25)" opacity="0.55178523" stroke="rgb(74, 93, 116)" stroke-opacity="0.785176" stroke-linecap="round" stroke-linejoin="round"/>
    <path d="M 23.980424880981445 63.810970306396484 C 23.342689514160156 60.60445022583008 21.480192184448242 61.2086067199707 19.653804779052734 61.1292724609375 C 22.784034729003906 59.52326583862305 24.969205856323242 64.2540054321289 26.010990142822266 72.7342300415039 C 27.420080184936523 70.48210144042969 24.30842399597168 67.12889862060547 24.59377670288086 60.05365753173828 C 26.853662490844727 68.01893615722656 25.73836326599121 72.54613494873047 23.980424880981445 63.810970306396484" stroke-width="0.0" fill="rgb(251, 194, 26)" opacity="0.8897084" stroke="rgb(151, 11, 154)" stroke-opacity="0.17052412" stroke-linecap="round" stroke-linejoin="round"/>
    <path d="M 7.829960823059082 117.88070678710938 C 6.656757831573486 120.25033569335938 6.568969249725342 120.21675109863281 6.967440605163574 118.27761840820312 C 4.911725997924805 121.35620880126953 8.52001667022705 116.65153503417969 7.528010845184326 118.72962188720703 C 6.405762672424316 118.95127868652344 7.9539947509765625 121.30254364013672 4.9925923347473145 122.48095703125 C 7.300703048706055 121.66828155517578 6.942471504211426 119.19578552246094 7.829960823059082 117.88070678710938" stroke-width="0.0" fill="rgb(255, 255, 255)" opacity="0.296365" stroke="rgb(246, 206, 77)" stroke-opacity="0.09767211" stroke-linecap="round" stroke-linejoin="round"/>
  </g>
</svg>
