<?xml version="1.0" ?>
<svg xmlns="http://www.w3.org/2000/svg" version="1.1" width="136" height="128">
  <defs/>
  <g>
    <path d="M 132.07066345214844 92.97615814208984 C 133.308837890625 110.25860595703125 89.55155944824219 125.21622467041016 39.40203857421875 116.63727569580078 C -4.497781276702881 105.99523162841797 4.033764839172363 94.19600677490234 5.446728229522705 72.71414184570312 C 12.796446800231934 23.671382904052734 40.870121002197266 4.049596309661865 80.50908660888672 9.848316192626953 C 108.30290985107422 14.601505279541016 130.894775390625 38.50718688964844 132.07066345214844 92.97615814208984" stroke-width="0.0" fill="rgb(251, 186, 0)" opacity="0.88940823" stroke="rgb(95, 242, 186)" stroke-opacity="0.5986585" stroke-linecap="round" stroke-linejoin="round"/>
    <path d="M 90.7745590209961 76.59483337402344 C 102.25524139404297 75.97674560546875 94.91931915283203 88.60145568847656 79.5470199584961 93.19890594482422 C 50.24979782104492 98.80435180664062 32.53337097167969 75.8436508178711 48.06135940551758 77.09478759765625 C 57.50217056274414 90.15372467041016 78.77251434326172 86.00088500976562 75.06949615478516 86.69554901123047 C 66.20580291748047 86.02908325195312 82.10658264160156 89.41248321533203 90.7745590209961 76.59483337402344" stroke-width="0.0" fill="rgb(250, 1, 1)" opacity="0.99053633" stroke="rgb(39, 39, 14)" stroke-opacity="0.8661761" stroke-linecap="round" stroke-linejoin="round"/>
    <path d="M 100.84741973876953 59.05055618286133 C 100.53839111328125 63.04434585571289 96.74281311035156 68.01222229003906 92.61854553222656 67.5476303100586 C 86.74527740478516 68.1875228881836 83.13842010498047 61.559818267822266 83.74671936035156 56.48075485229492 C 83.13912200927734 54.962711334228516 85.85575866699219 47.11540603637695 91.7015380859375 47.09124755859375 C 97.11016845703125 46.529884338378906 101.6883544921875 51.473411560058594 100.84741973876953 59.05055618286133" stroke-width="0.0" fill="rgb(0, 0, 251)" opacity="0.9929435" stroke="rgb(153, 180, 5)" stroke-opacity="0.96990985" stroke-linecap="round" stroke-linejoin="round"/>
    <path d="M 52.57931900024414 57.076541900634766 C 52.78156661987305 62.59302520751953 49.090721130371094 69.61940002441406 40.481117248535156 67.08020782470703 C 40.394287109375 66.59014892578125 35.70686340332031 64.69674682617188 35.349815368652344 58.64871597290039 C 34.53972625732422 53.006134033203125 38.50278854370117 47.3255729675293 42.73869705200195 47.136661529541016 C 48.375492095947266 46.123416900634766 52.681034088134766 51.66367721557617 52.57931900024414 57.076541900634766" stroke-width="0.0" fill="rgb(0, 251, 0)" opacity="0.99347985" stroke="rgb(212, 54, 46)" stroke-opacity="0.1834045" stroke-linecap="round" stroke-linejoin="round"/>
    <path d="M 41.85020065307617 70.29830932617188 C 36.462337493896484 65.85494995117188 39.4585075378418 68.28650665283203 42.30392837524414 70.67537689208984 C 39.66259002685547 68.3857650756836 39.5228157043457 68.30841064453125 41.833927154541016 70.25401306152344 C 43.731990814208984 69.35986328125 43.3941535949707 69.49219512939453 39.97169876098633 71.25627136230469 C 36.27490234375 73.10106658935547 37.923431396484375 72.28534698486328 41.85020065307617 70.29830932617188" stroke-width="0.0" fill="rgb(215, 194, 24)" opacity="0.85379785" stroke="rgb(110, 74, 156)" stroke-opacity="0.13949387" stroke-linecap="round" stroke-linejoin="round"/>
    <path d="M 37.13775634765625 38.741065979003906 C 34.854618072509766 39.7968635559082 32.34803771972656 41.252723693847656 29.994853973388672 42.995479583740234 C 46.7337646484375 44.2171630859375 43.77816390991211 41.857505798339844 37.07018280029297 38.91835021972656 C 28.595102310180664 43.381229400634766 28.999881744384766 43.4177131652832 38.33549880981445 43.45283889770508 C 42.24138641357422 43.47121047973633 45.91553497314453 42.43130111694336 37.13775634765625 38.741065979003906" stroke-width="0.0" fill="rgb(245, 194, 25)" opacity="0.9167346" stroke="rgb(116, 200, 50)" stroke-opacity="0.5142344" stroke-linecap="round" stroke-linejoin="round"/>
    <path d="M 79.98747253417969 -7.972018718719482 C 70.06270599365234 -8.049043655395508 72.23285675048828 -6.413299083709717 73.12821197509766 2.270899534225464 C 72.13510131835938 6.088233470916748 74.85242462158203 6.436797618865967 82.76016235351562 7.215353965759277 C 84.37720489501953 9.600441932678223 86.98333740234375 7.426642894744873 85.7454605102539 -1.0040642023086548 C 82.23236846923828 -2.502537727355957 87.70436096191406 -3.368351697921753 79.98747253417969 -7.972018718719482" stroke-width="0.0" fill="rgb(255, 255, 255)" opacity="4.292582e-06" stroke="rgb(154, 43, 16)" stroke-opacity="0.94888556" stroke-linecap="round" stroke-linejoin="round"/>
    <path d="M 145.04161071777344 97.4404067993164 C 143.240478515625 106.38214111328125 140.23080444335938 108.39010620117188 137.4628448486328 106.2576904296875 C 143.8041534423828 105.94479370117188 129.48060607910156 106.44620513916016 132.02191162109375 106.36199951171875 C 132.13482666015625 106.46725463867188 136.93185424804688 106.3314208984375 145.12022399902344 105.26451873779297 C 139.54833984375 99.15263366699219 138.0510711669922 96.88574981689453 145.04161071777344 97.4404067993164" stroke-width="0.0" fill="rgb(255, 255, 255)" opacity="0.5405516" stroke="rgb(77, 24, 174)" stroke-opacity="0.4401525" stroke-linecap="round" stroke-linejoin="round"/>
  </g>
</svg>
