<?xml version="1.0" ?>
<svg xmlns="http://www.w3.org/2000/svg" version="1.1" width="136" height="128">
  <defs/>
  <g>
    <path d="M 130.85096740722656 74.63201141357422 C 122.5973129272461 89.3446273803711 146.59915161132812 98.44087219238281 110.2632064819336 113.56647491455078 C 65.57861328125 128.1074676513672 6.416593074798584 115.4162826538086 4.409054756164551 96.47294616699219 C -0.1441957652568817 53.89084243774414 23.39396858215332 14.51860237121582 63.99123001098633 8.924368858337402 C 109.83434295654297 2.8158581256866455 138.52322387695312 30.79450798034668 130.85096740722656 74.63201141357422" stroke-width="0.0" fill="rgb(252, 186, 0)" opacity="0.8921638" stroke="rgb(95, 242, 186)" stroke-opacity="0.5986585" stroke-linecap="round" stroke-linejoin="round"/>
    <path d="M 61.68613815307617 74.95362854003906 C 61.51865768432617 85.40409851074219 57.943660736083984 92.82542419433594 48.36848449707031 90.26549530029297 C 33.9182014465332 83.98566436767578 42.00524139404297 75.2291259765625 38.45083236694336 79.09175109863281 C 39.220619201660156 68.97087860107422 44.40757751464844 62.03996276855469 49.56663131713867 59.56415939331055 C 57.11015319824219 57.76608657836914 61.344661712646484 62.45702362060547 61.68613815307617 74.95362854003906" stroke-width="0.0" fill="rgb(254, 0, 0)" opacity="0.960686" stroke="rgb(39, 39, 14)" stroke-opacity="0.8661761" stroke-linecap="round" stroke-linejoin="round"/>
    <path d="M 88.48477935791016 50.421669006347656 C 87.97887420654297 56.80778503417969 84.3052749633789 59.5908088684082 80.15074920654297 60.77268600463867 C 74.00807189941406 61.30585861206055 70.89311981201172 56.018959045410156 71.23059844970703 51.50389099121094 C 71.18492889404297 46.27427291870117 74.60308837890625 42.74947738647461 78.08826446533203 41.09750747680664 C 81.91736602783203 47.75689697265625 85.52626037597656 48.10560989379883 88.48477935791016 50.421669006347656" stroke-width="0.0" fill="rgb(0, 0, 251)" opacity="0.99971694" stroke="rgb(153, 180, 5)" stroke-opacity="0.96990985" stroke-linecap="round" stroke-linejoin="round"/>
    <path d="M 49.78731918334961 34.11521530151367 C 51.8656005859375 44.26829528808594 44.242286682128906 48.067840576171875 42.25184631347656 48.063053131103516 C 36.1344108581543 49.33102035522461 32.142887115478516 43.9880485534668 33.12251663208008 37.0585823059082 C 36.01205825805664 31.069936752319336 32.40810012817383 34.232566833496094 42.287776947021484 33.957054138183594 C 51.30142593383789 32.3995361328125 47.789615631103516 30.77410125732422 49.78731918334961 34.11521530151367" stroke-width="0.0" fill="rgb(0, 252, 0)" opacity="0.9998783" stroke="rgb(212, 54, 46)" stroke-opacity="0.1834045" stroke-linecap="round" stroke-linejoin="round"/>
    <path d="M 55.83549118041992 15.676990509033203 C 69.87629699707031 13.822214126586914 84.83036041259766 16.363088607788086 67.00927734375 19.420204162597656 C 60.3266487121582 9.375596046447754 57.969547271728516 8.415485382080078 64.4515609741211 17.73450469970703 C 65.88550567626953 16.847286224365234 67.31134796142578 14.82898235321045 65.2144775390625 15.633532524108887 C 54.29306411743164 17.09463882446289 54.5481071472168 16.60820960998535 55.83549118041992 15.676990509033203" stroke-width="0.0" fill="rgb(251, 194, 27)" opacity="0.90174234" stroke="rgb(77, 133, 110)" stroke-opacity="0.29122913" stroke-linecap="round" stroke-linejoin="round"/>
    <path d="M 53.32834243774414 17.21121597290039 C 58.460655212402344 15.36215877532959 70.6202392578125 9.9104642868042 64.877685546875 19.683425903320312 C 62.7101936340332 8.645573616027832 62.1424446105957 5.806482791900635 64.8556137084961 19.61101722717285 C 66.44796752929688 17.026565551757812 67.58592987060547 14.368566513061523 64.01850128173828 13.819089889526367 C 53.84522247314453 16.15734100341797 56.08795166015625 16.635597229003906 53.32834243774414 17.21121597290039" stroke-width="0.0" fill="rgb(250, 194, 34)" opacity="0.9054783" stroke="rgb(156, 35, 74)" stroke-opacity="0.36636186" stroke-linecap="round" stroke-linejoin="round"/>
    <path d="M 52.810997009277344 19.12495231628418 C 57.314735412597656 13.536465644836426 65.37110900878906 12.668156623840332 65.74378967285156 19.254030227661133 C 61.4031982421875 9.813362121582031 60.799827575683594 8.553496360778809 65.27176666259766 18.189054489135742 C 65.41751098632812 17.494062423706055 66.13957977294922 14.926960945129395 59.05331039428711 14.376861572265625 C 55.22133255004883 17.57101058959961 56.32771682739258 15.827034950256348 52.810997009277344 19.12495231628418" stroke-width="0.0" fill="rgb(250, 193, 29)" opacity="0.9027857" stroke="rgb(116, 200, 50)" stroke-opacity="0.5142344" stroke-linecap="round" stroke-linejoin="round"/>
    <path d="M 55.0271110534668 17.276046752929688 C 60.680782318115234 13.134737014770508 65.2897720336914 11.905593872070312 64.95738220214844 20.00380516052246 C 63.76667022705078 10.399467468261719 63.472267150878906 7.17903995513916 65.1574478149414 17.859718322753906 C 65.42266845703125 17.139463424682617 66.23770904541016 14.736908912658691 61.75365447998047 14.024262428283691 C 54.58766555786133 16.371475219726562 54.877037048339844 17.145193099975586 55.0271110534668 17.276046752929688" stroke-width="0.0" fill="rgb(251, 194, 28)" opacity="0.90277094" stroke="rgb(151, 11, 154)" stroke-opacity="0.17052412" stroke-linecap="round" stroke-linejoin="round"/>
  </g>
</svg>
