<?xml version="1.0" ?>
<svg xmlns="http://www.w3.org/2000/svg" version="1.1" width="136" height="128">
  <defs/>
  <g>
    <path d="M 131.307373046875 93.10176849365234 C 132.9424591064453 111.06941223144531 79.7325210571289 125.98443603515625 30.896549224853516 113.57149505615234 C -0.1964038759469986 103.23558044433594 3.225324869155884 96.2718276977539 6.051044940948486 71.49007415771484 C 13.255870819091797 26.124284744262695 39.1384391784668 6.37489652633667 76.93174743652344 10.387945175170898 C 118.58976745605469 15.05811595916748 131.78189086914062 56.70793151855469 131.307373046875 93.10176849365234" stroke-width="0.0" fill="rgb(251, 186, 0)" opacity="0.8895379" stroke="rgb(95, 242, 186)" stroke-opacity="0.5986585" stroke-linecap="round" stroke-linejoin="round"/>
    <path d="M 108.75993347167969 60.56206130981445 C 109.99667358398438 74.38987731933594 95.90100860595703 83.11406707763672 82.72280883789062 78.70611572265625 C 77.4629898071289 77.17401123046875 69.83247375488281 69.36813354492188 72.8359146118164 60.73344421386719 C 82.07837677001953 62.65489959716797 70.5784912109375 70.04014587402344 95.63446807861328 57.74326705932617 C 100.667724609375 56.014957427978516 107.94800567626953 49.67585754394531 108.75993347167969 60.56206130981445" stroke-width="0.0" fill="rgb(0, 0, 252)" opacity="0.99682575" stroke="rgb(39, 39, 14)" stroke-opacity="0.8661761" stroke-linecap="round" stroke-linejoin="round"/>
    <path d="M 61.91824722290039 60.68130111694336 C 65.6438980102539 66.38140869140625 59.55562210083008 80.53211212158203 44.87327194213867 79.79463958740234 C 37.37390899658203 80.16277313232422 25.75395393371582 74.16724395751953 26.222517013549805 61.344051361083984 C 26.918838500976562 53.04104995727539 29.785921096801758 54.326171875 32.48115539550781 54.578189849853516 C 65.84900665283203 70.10356903076172 51.981685638427734 64.02722930908203 61.91824722290039 60.68130111694336" stroke-width="0.0" fill="rgb(0, 251, 0)" opacity="0.99333787" stroke="rgb(153, 180, 5)" stroke-opacity="0.96990985" stroke-linecap="round" stroke-linejoin="round"/>
    <path d="M 87.71404266357422 97.4774169921875 C 78.72412872314453 85.13076782226562 64.3343276977539 89.76946258544922 62.19208908081055 89.89990997314453 C 70.0341567993164 90.62401580810547 57.8703498840332 87.45706176757812 50.23505783081055 97.59664916992188 C 37.504371643066406 97.76524353027344 50.36310958862305 82.10369873046875 70.59809875488281 82.3726806640625 C 88.68782806396484 81.95132446289062 100.44137573242188 99.60498809814453 87.71404266357422 97.4774169921875" stroke-width="0.0" fill="rgb(249, 0, 1)" opacity="0.98485065" stroke="rgb(212, 54, 46)" stroke-opacity="0.1834045" stroke-linecap="round" stroke-linejoin="round"/>
    <path d="M 1.9028398990631104 83.89198303222656 C 2.805069923400879 91.6587905883789 0.24531327188014984 86.16575622558594 -8.01473617553711 90.09956359863281 C 3.7528555393218994 95.3064193725586 0.07614563405513763 93.12623596191406 -10.700273513793945 88.86541748046875 C 1.1094144582748413 87.61608123779297 3.503185272216797 86.74163055419922 4.763388156890869 98.0975341796875 C 5.100306034088135 78.69143676757812 5.8782477378845215 76.26011657714844 1.9028398990631104 83.89198303222656" stroke-width="0.0" fill="rgb(255, 255, 255)" opacity="0.25646988" stroke="rgb(77, 133, 110)" stroke-opacity="0.29122913" stroke-linecap="round" stroke-linejoin="round"/>
    <path d="M 92.66885375976562 71.8554916381836 C 90.75411987304688 72.46676635742188 88.05391693115234 73.55438232421875 94.07654571533203 72.93683624267578 C 101.5007095336914 72.8116455078125 99.11202239990234 72.28399658203125 96.60005950927734 68.68299865722656 C 91.3193359375 75.83363342285156 89.06170654296875 76.27659606933594 96.18077087402344 72.73762512207031 C 95.48477935791016 80.00747680664062 92.45115661621094 80.06428527832031 92.66885375976562 71.8554916381836" stroke-width="0.0" fill="rgb(0, 0, 255)" opacity="0.91163296" stroke="rgb(156, 35, 74)" stroke-opacity="0.36636186" stroke-linecap="round" stroke-linejoin="round"/>
    <path d="M 71.75524139404297 69.35350799560547 C 75.09567260742188 72.39344787597656 72.7585220336914 68.07546997070312 73.20941162109375 72.07969665527344 C 71.70966339111328 71.38548278808594 77.10716247558594 72.90270233154297 75.90894317626953 74.29996490478516 C 80.50151062011719 77.24490356445312 78.90367126464844 79.44335174560547 73.59477233886719 72.80429077148438 C 75.8612289428711 74.57486724853516 73.63182830810547 67.60932159423828 71.75524139404297 69.35350799560547" stroke-width="0.0" fill="rgb(136, 106, 115)" opacity="0.67027295" stroke="rgb(116, 200, 50)" stroke-opacity="0.5142344" stroke-linecap="round" stroke-linejoin="round"/>
    <path d="M 93.11029052734375 72.20426940917969 C 90.87737274169922 72.63748931884766 88.16754150390625 73.6307373046875 93.81304931640625 73.40328216552734 C 101.08873748779297 72.7237777709961 98.15389251708984 72.04963684082031 97.84606170654297 71.6737060546875 C 99.51773071289062 78.49093627929688 96.598876953125 81.64808654785156 93.84973907470703 70.51781463623047 C 91.79220581054688 79.58110046386719 91.7557373046875 78.2723159790039 93.11029052734375 72.20426940917969" stroke-width="0.0" fill="rgb(0, 0, 255)" opacity="0.9144575" stroke="rgb(151, 11, 154)" stroke-opacity="0.17052412" stroke-linecap="round" stroke-linejoin="round"/>
  </g>
</svg>
