<?xml version="1.0" ?>
<svg xmlns="http://www.w3.org/2000/svg" version="1.1" width="136" height="128">
  <defs/>
  <g>
    <path d="M 131.85841369628906 92.45252990722656 C 133.94024658203125 101.6021957397461 115.93539428710938 120.71078491210938 57.27994155883789 118.9294204711914 C -10.583429336547852 111.24217224121094 6.117826461791992 88.22188568115234 4.822566032409668 79.53450012207031 C 10.487086296081543 24.166643142700195 40.079105377197266 6.268916606903076 75.19186401367188 9.28125 C 114.66497802734375 13.111416816711426 130.9346466064453 48.03288269042969 131.85841369628906 92.45252990722656" stroke-width="0.0" fill="rgb(251, 186, 0)" opacity="0.8889368" stroke="rgb(95, 242, 186)" stroke-opacity="0.5986585" stroke-linecap="round" stroke-linejoin="round"/>
    <path d="M 109.56787109375 69.39331817626953 C 110.49069213867188 71.58080291748047 96.98346710205078 79.26213836669922 94.77609252929688 66.61309051513672 C 97.81246948242188 64.26297760009766 87.35485076904297 62.445945739746094 81.38253021240234 71.69287872314453 C 70.77613067626953 72.77815246582031 80.26521301269531 60.765281677246094 88.4630126953125 59.31564712524414 C 100.40199279785156 56.139854431152344 110.50788879394531 65.93577575683594 109.56787109375 69.39331817626953" stroke-width="0.0" fill="rgb(0, 0, 250)" opacity="0.99250674" stroke="rgb(39, 39, 14)" stroke-opacity="0.8661761" stroke-linecap="round" stroke-linejoin="round"/>
    <path d="M 58.38799285888672 69.265869140625 C 59.975486755371094 70.9889907836914 46.293392181396484 79.70474243164062 43.49374008178711 66.69275665283203 C 46.585227966308594 64.38023376464844 36.321388244628906 62.52377700805664 30.599943161010742 71.29244232177734 C 21.04001808166504 73.9977035522461 25.972637176513672 61.101688385009766 39.241302490234375 58.85084915161133 C 53.01754379272461 57.2045783996582 59.8668098449707 68.6239242553711 58.38799285888672 69.265869140625" stroke-width="0.0" fill="rgb(3, 249, 1)" opacity="0.9991461" stroke="rgb(153, 180, 5)" stroke-opacity="0.96990985" stroke-linecap="round" stroke-linejoin="round"/>
    <path d="M 96.41339111328125 84.1696548461914 C 101.27605438232422 87.9028549194336 82.63277435302734 100.77591705322266 65.65738677978516 99.93386840820312 C 55.872398376464844 100.1270523071289 48.264801025390625 99.98985290527344 53.5551643371582 93.30877685546875 C 77.47230529785156 97.15655517578125 88.5430679321289 87.03193664550781 87.4982681274414 86.91377258300781 C 83.7194595336914 93.91312408447266 90.49984741210938 81.13780975341797 96.41339111328125 84.1696548461914" stroke-width="0.0" fill="rgb(248, 0, 1)" opacity="0.986529" stroke="rgb(212, 54, 46)" stroke-opacity="0.1834045" stroke-linecap="round" stroke-linejoin="round"/>
    <path d="M 95.69731903076172 60.05335235595703 C 100.02217102050781 67.01184844970703 98.1512451171875 64.2528076171875 99.28889465332031 66.16149139404297 C 102.21588134765625 67.00963592529297 101.90643310546875 66.97618103027344 99.26034545898438 66.14019012451172 C 100.15178680419922 68.53292083740234 101.20744323730469 70.57984161376953 102.48392486572266 72.70413970947266 C 98.1727523803711 65.28373718261719 101.24952697753906 68.78721618652344 95.69731903076172 60.05335235595703" stroke-width="0.0" fill="rgb(36, 24, 226)" opacity="0.84455276" stroke="rgb(77, 133, 110)" stroke-opacity="0.29122913" stroke-linecap="round" stroke-linejoin="round"/>
    <path d="M 72.88520050048828 77.10540008544922 C 74.60338592529297 64.60702514648438 73.86195373535156 62.380706787109375 69.26459503173828 69.56541442871094 C 74.59996795654297 72.59806823730469 72.20097351074219 67.61589813232422 75.45433807373047 62.30153274536133 C 74.21723175048828 79.85942840576172 73.92085266113281 78.7273941040039 72.32868957519531 72.2959213256836 C 69.9269790649414 74.82347106933594 72.1562271118164 75.78495025634766 72.88520050048828 77.10540008544922" stroke-width="0.0" fill="rgb(251, 193, 26)" opacity="0.8999522" stroke="rgb(156, 35, 74)" stroke-opacity="0.36636186" stroke-linecap="round" stroke-linejoin="round"/>
    <path d="M 76.42849731445312 68.34730529785156 C 86.44710540771484 58.08484649658203 78.0832290649414 62.211585998535156 75.610107421875 68.4954833984375 C 77.1252212524414 66.84648132324219 76.1961898803711 67.23811340332031 75.64948272705078 69.5399398803711 C 78.32823944091797 74.67718505859375 77.65315246582031 69.46084594726562 77.63402557373047 70.01001739501953 C 75.29705810546875 69.70138549804688 75.37798309326172 69.85798645019531 76.42849731445312 68.34730529785156" stroke-width="0.0" fill="rgb(140, 108, 114)" opacity="0.6235807" stroke="rgb(116, 200, 50)" stroke-opacity="0.5142344" stroke-linecap="round" stroke-linejoin="round"/>
    <path d="M 57.932334899902344 12.607449531555176 C 61.080474853515625 12.433428764343262 61.635498046875 12.416409492492676 58.978824615478516 11.979228973388672 C 62.489505767822266 12.852556228637695 54.175228118896484 10.833841323852539 63.23375701904297 12.907819747924805 C 61.99463653564453 14.009153366088867 65.17634582519531 11.078535079956055 53.982749938964844 13.306543350219727 C 56.50468444824219 12.873958587646484 60.02117919921875 12.245421409606934 57.932334899902344 12.607449531555176" stroke-width="0.0" fill="rgb(251, 194, 60)" opacity="0.8706577" stroke="rgb(151, 11, 154)" stroke-opacity="0.17052412" stroke-linecap="round" stroke-linejoin="round"/>
  </g>
</svg>
