<?xml version="1.0" ?>
<svg xmlns="http://www.w3.org/2000/svg" version="1.1" width="136" height="128">
  <defs/>
  <g>
    <path d="M 126.77458190917969 79.3285140991211 C 120.20148468017578 97.39012908935547 146.90345764160156 98.36829376220703 119.42779541015625 117.48648071289062 C 78.5525894165039 137.98681640625 6.023942470550537 125.79515838623047 4.405333518981934 102.65521240234375 C 0.07493621855974197 49.91868209838867 24.564390182495117 13.106385231018066 57.78923797607422 2.5759530067443848 C 81.3283920288086 -5.75553035736084 147.43405151367188 4.438775062561035 126.77458190917969 79.3285140991211" stroke-width="0.0" fill="rgb(252, 187, 0)" opacity="0.89195585" stroke="rgb(95, 242, 186)" stroke-opacity="0.5986585" stroke-linecap="round" stroke-linejoin="round"/>
    <path d="M 45.85991668701172 38.09730911254883 C 44.82937240600586 44.7012939453125 42.531612396240234 47.89208984375 35.77973937988281 49.04367446899414 C 31.839956283569336 47.526180267333984 30.618558883666992 47.95284652709961 28.8748836517334 41.32697677612305 C 29.898534774780273 34.36883544921875 32.743465423583984 31.469810485839844 37.81488800048828 30.392396926879883 C 43.6356086730957 30.364276885986328 45.020538330078125 33.43222427368164 45.85991668701172 38.09730911254883" stroke-width="0.0" fill="rgb(0, 252, 0)" opacity="1.0" stroke="rgb(39, 39, 14)" stroke-opacity="0.8661761" stroke-linecap="round" stroke-linejoin="round"/>
    <path d="M 85.05715942382812 71.58504486083984 C 71.76094055175781 65.85550689697266 82.70459747314453 64.84077453613281 60.584716796875 70.97256469726562 C 29.308164596557617 79.2430419921875 25.518850326538086 83.52811431884766 26.970272064208984 73.81486511230469 C 41.89799499511719 69.38187408447266 57.416378021240234 65.04122924804688 77.81251525878906 59.34590530395508 C 73.66830444335938 59.78409957885742 96.6173095703125 66.36796569824219 85.05715942382812 71.58504486083984" stroke-width="0.0" fill="rgb(246, 0, 1)" opacity="0.99027056" stroke="rgb(153, 180, 5)" stroke-opacity="0.96990985" stroke-linecap="round" stroke-linejoin="round"/>
    <path d="M 88.08985137939453 36.469120025634766 C 87.02467346191406 42.82795333862305 82.5097427368164 45.1629753112793 77.58224487304688 45.81916427612305 C 71.24674987792969 44.94561767578125 68.54600524902344 42.12681198120117 67.07852172851562 37.0887336730957 C 66.68708038330078 28.74485206604004 68.78622436523438 32.8917350769043 67.66893005371094 30.399770736694336 C 82.89452362060547 34.660987854003906 89.64354705810547 36.9129753112793 88.08985137939453 36.469120025634766" stroke-width="0.0" fill="rgb(0, 0, 251)" opacity="0.9997747" stroke="rgb(212, 54, 46)" stroke-opacity="0.1834045" stroke-linecap="round" stroke-linejoin="round"/>
    <path d="M 126.2984619140625 55.41254425048828 C 125.36369323730469 49.57828140258789 123.35718536376953 52.180580139160156 122.82620239257812 54.61109924316406 C 122.96394348144531 66.55462646484375 127.2293930053711 60.259056091308594 125.88492584228516 52.84883117675781 C 128.07958984375 57.51198196411133 123.0155258178711 44.97343063354492 122.83150482177734 58.14962387084961 C 123.76597595214844 61.09062576293945 125.23454284667969 64.54322052001953 126.2984619140625 55.41254425048828" stroke-width="0.0" fill="rgb(250, 192, 31)" opacity="0.91460377" stroke="rgb(77, 133, 110)" stroke-opacity="0.29122913" stroke-linecap="round" stroke-linejoin="round"/>
    <path d="M 126.27304077148438 55.460350036621094 C 125.42756652832031 49.57622528076172 123.29295349121094 52.19805908203125 122.94709777832031 54.42422866821289 C 124.09989166259766 67.46671295166016 126.89009857177734 58.26758575439453 125.94226837158203 53.358619689941406 C 127.42293548583984 54.53722381591797 122.0905532836914 47.13751983642578 123.314208984375 57.975189208984375 C 123.94325256347656 60.86597442626953 125.26481628417969 64.44570922851562 126.27304077148438 55.460350036621094" stroke-width="0.0" fill="rgb(250, 192, 32)" opacity="0.9138065" stroke="rgb(156, 35, 74)" stroke-opacity="0.36636186" stroke-linecap="round" stroke-linejoin="round"/>
    <path d="M 126.28295135498047 57.32733154296875 C 126.18759155273438 49.82579040527344 123.46150970458984 52.28699493408203 122.81996154785156 54.344146728515625 C 124.51345825195312 67.24758911132812 127.2009048461914 60.04526901245117 125.91768646240234 53.29513168334961 C 127.43738555908203 54.552085876464844 121.64848327636719 47.7001838684082 123.44426727294922 58.45317459106445 C 124.23815155029297 60.89703369140625 125.5573501586914 64.56636810302734 126.28295135498047 57.32733154296875" stroke-width="0.0" fill="rgb(250, 193, 33)" opacity="0.91476613" stroke="rgb(116, 200, 50)" stroke-opacity="0.5142344" stroke-linecap="round" stroke-linejoin="round"/>
    <path d="M 126.22379302978516 55.6160774230957 C 125.58980560302734 50.120338439941406 123.4893798828125 52.33575439453125 122.75919342041016 54.50880432128906 C 124.8636474609375 67.43017578125 126.79094696044922 58.488037109375 125.93509674072266 50.50798797607422 C 127.21389770507812 57.21165084838867 122.1189193725586 46.127193450927734 123.34590911865234 58.19902420043945 C 124.25265502929688 60.85692596435547 125.42188262939453 63.95976257324219 126.22379302978516 55.6160774230957" stroke-width="0.0" fill="rgb(250, 194, 34)" opacity="0.91424865" stroke="rgb(151, 11, 154)" stroke-opacity="0.17052412" stroke-linecap="round" stroke-linejoin="round"/>
  </g>
</svg>
