<?xml version="1.0" ?>
<svg xmlns="http://www.w3.org/2000/svg" version="1.1" width="136" height="128">
  <defs/>
  <g>
    <path d="M 131.1689910888672 93.8928451538086 C 130.9290313720703 111.35565185546875 83.46749877929688 125.16039276123047 35.28111267089844 115.07909393310547 C -1.553719401359558 104.5521240234375 4.703575611114502 95.4296646118164 5.850512981414795 74.82019805908203 C 11.980775833129883 28.58968162536621 36.61552810668945 7.002890586853027 73.53720092773438 9.769307136535645 C 106.79438781738281 11.372116088867188 131.10626220703125 38.9749870300293 131.1689910888672 93.8928451538086" stroke-width="0.0" fill="rgb(251, 186, 0)" opacity="0.88912344" stroke="rgb(95, 242, 186)" stroke-opacity="0.5986585" stroke-linecap="round" stroke-linejoin="round"/>
    <path d="M 92.32276916503906 59.89274597167969 C 110.65467071533203 58.98642349243164 103.41545104980469 67.93939208984375 100.60894775390625 66.7630615234375 C 89.3326416015625 63.715362548828125 72.58231353759766 68.81885528564453 80.72445678710938 66.37142944335938 C 69.38026428222656 63.495479583740234 94.4013900756836 50.83624267578125 102.00371551513672 49.74360656738281 C 107.66870880126953 56.0504264831543 99.96560668945312 55.80888748168945 92.32276916503906 59.89274597167969" stroke-width="0.0" fill="rgb(0, 0, 251)" opacity="0.9930049" stroke="rgb(39, 39, 14)" stroke-opacity="0.8661761" stroke-linecap="round" stroke-linejoin="round"/>
    <path d="M 90.56682586669922 76.38374328613281 C 103.97129821777344 76.08474731445312 90.46842193603516 92.22987365722656 74.9013442993164 93.64643096923828 C 50.205135345458984 95.99998474121094 33.503963470458984 76.91270446777344 47.839599609375 76.6500015258789 C 57.1346321105957 88.5893325805664 66.94409942626953 82.5480728149414 57.04530715942383 84.5682601928711 C 57.11083221435547 82.99127960205078 77.79208374023438 93.99095916748047 90.56682586669922 76.38374328613281" stroke-width="0.0" fill="rgb(249, 0, 1)" opacity="0.98566353" stroke="rgb(153, 180, 5)" stroke-opacity="0.96990985" stroke-linecap="round" stroke-linejoin="round"/>
    <path d="M 52.541568756103516 54.805091857910156 C 54.18472671508789 63.67671203613281 47.70975112915039 68.1026382446289 44.20550537109375 67.54325866699219 C 37.811622619628906 68.11994171142578 34.99264144897461 59.52073669433594 35.807403564453125 58.118370056152344 C 34.88828659057617 53.34512710571289 38.65674591064453 46.7243537902832 44.60321044921875 47.23432540893555 C 49.266815185546875 46.9771842956543 52.11568832397461 52.27642059326172 52.541568756103516 54.805091857910156" stroke-width="0.0" fill="rgb(0, 251, 0)" opacity="0.9934146" stroke="rgb(212, 54, 46)" stroke-opacity="0.1834045" stroke-linecap="round" stroke-linejoin="round"/>
    <path d="M 80.40433502197266 62.819149017333984 C 81.03892517089844 64.35209655761719 79.92558288574219 61.66358947753906 80.56388854980469 63.236236572265625 C 81.42972564697266 60.91118621826172 82.2394027709961 58.62228775024414 80.56438446044922 63.21074676513672 C 82.02659606933594 67.24578094482422 81.40264129638672 65.60861206054688 80.70075988769531 63.54692459106445 C 79.26959991455078 59.9985237121582 81.74711608886719 66.21701049804688 80.40433502197266 62.819149017333984" stroke-width="0.0" fill="rgb(49, 38, 197)" opacity="0.8574687" stroke="rgb(77, 133, 110)" stroke-opacity="0.29122913" stroke-linecap="round" stroke-linejoin="round"/>
    <path d="M 80.4657974243164 62.83450698852539 C 81.563232421875 63.111610412597656 80.58293151855469 62.826419830322266 80.51154327392578 62.805198669433594 C 82.10528564453125 60.5726203918457 83.04443359375 59.26835250854492 79.2957992553711 64.52909088134766 C 86.0638427734375 66.25214385986328 85.3414077758789 66.1036376953125 79.31867218017578 64.51657104492188 C 77.69245910644531 59.25167465209961 76.67251586914062 69.18309783935547 80.4657974243164 62.83450698852539" stroke-width="0.0" fill="rgb(54, 47, 173)" opacity="0.8372038" stroke="rgb(156, 35, 74)" stroke-opacity="0.36636186" stroke-linecap="round" stroke-linejoin="round"/>
    <path d="M 108.15316009521484 46.96585464477539 C 98.9231185913086 46.93534469604492 95.74102020263672 47.79217529296875 108.56462860107422 47.35169219970703 C 108.1160888671875 46.91751480102539 108.03134155273438 44.19913864135742 107.18375396728516 41.55738830566406 C 108.0025405883789 47.61065673828125 108.30224609375 48.10451889038086 108.3509521484375 45.868221282958984 C 108.503173828125 48.211700439453125 108.46153259277344 50.58492660522461 108.15316009521484 46.96585464477539" stroke-width="0.0" fill="rgb(251, 194, 26)" opacity="0.8905892" stroke="rgb(116, 200, 50)" stroke-opacity="0.5142344" stroke-linecap="round" stroke-linejoin="round"/>
    <path d="M 101.78475189208984 58.72195053100586 C 99.34141540527344 59.235435485839844 87.46984100341797 60.05522155761719 105.74384307861328 55.88718795776367 C 102.0591049194336 57.044288635253906 100.22006225585938 55.59869384765625 95.44338989257812 59.65791320800781 C 98.35077667236328 60.037288665771484 98.1201400756836 58.640193939208984 99.89933013916016 59.1905632019043 C 87.84754180908203 58.977535247802734 99.33684539794922 58.54878616333008 101.78475189208984 58.72195053100586" stroke-width="0.0" fill="rgb(183, 142, 80)" opacity="0.78619564" stroke="rgb(151, 11, 154)" stroke-opacity="0.17052412" stroke-linecap="round" stroke-linejoin="round"/>
  </g>
</svg>
