<?xml version="1.0" ?>
<svg xmlns="http://www.w3.org/2000/svg" version="1.1" width="136" height="128">
  <defs/>
  <g>
    <path d="M 123.62818145751953 49.300567626953125 C 142.66233825683594 99.90460968017578 132.92855834960938 113.4038314819336 65.70761108398438 117.300537109375 C -19.75220489501953 109.73867797851562 14.912199974060059 81.3963394165039 8.748811721801758 77.33714294433594 C -18.36151695251465 5.020526885986328 80.99102783203125 -7.0902099609375 114.07311248779297 35.98147201538086 C 82.05264282226562 -10.77066421508789 83.88920593261719 -7.072071075439453 123.62818145751953 49.300567626953125" stroke-width="0.0" fill="rgb(251, 185, 0)" opacity="0.8862434" stroke="rgb(95, 242, 186)" stroke-opacity="0.5986585" stroke-linecap="round" stroke-linejoin="round"/>
    <path d="M 86.13734436035156 83.20746612548828 C 89.29610443115234 98.450439453125 78.01789855957031 106.62028503417969 62.038272857666016 101.10053253173828 C 44.8022346496582 85.43060302734375 31.648681640625 116.13826751708984 23.142724990844727 84.25547790527344 C 30.136131286621094 62.66606140136719 46.801795959472656 84.40239715576172 53.794517517089844 78.03883361816406 C 70.79780578613281 62.50093460083008 81.07372283935547 71.58202362060547 86.13734436035156 83.20746612548828" stroke-width="0.0" fill="rgb(254, 0, 0)" opacity="0.9900861" stroke="rgb(39, 39, 14)" stroke-opacity="0.8661761" stroke-linecap="round" stroke-linejoin="round"/>
    <path d="M 78.19847869873047 57.11356735229492 C 85.53553009033203 57.068336486816406 81.58419799804688 65.68494415283203 79.209716796875 64.16132354736328 C 62.52159118652344 67.6573486328125 50.64248275756836 56.10886001586914 51.091644287109375 52.51264190673828 C 54.88788986206055 44.32150650024414 60.54262924194336 54.52372360229492 60.0177001953125 53.49000549316406 C 55.93746566772461 48.4780387878418 64.19163513183594 60.565433502197266 78.19847869873047 57.11356735229492" stroke-width="0.0" fill="rgb(0, 0, 251)" opacity="0.9918863" stroke="rgb(153, 180, 5)" stroke-opacity="0.96990985" stroke-linecap="round" stroke-linejoin="round"/>
    <path d="M 38.32040786743164 54.41481018066406 C 38.426883697509766 64.69387817382812 31.741731643676758 69.93167877197266 24.729291915893555 72.4598617553711 C 18.958314895629883 74.17025756835938 17.391498565673828 66.50206756591797 23.805511474609375 65.5645523071289 C 27.138103485107422 63.63478088378906 31.464508056640625 62.007755279541016 31.76834487915039 54.1500358581543 C 36.002140045166016 50.570556640625 37.82487487792969 54.26165771484375 38.32040786743164 54.41481018066406" stroke-width="0.0" fill="rgb(3, 248, 1)" opacity="0.99980336" stroke="rgb(212, 54, 46)" stroke-opacity="0.1834045" stroke-linecap="round" stroke-linejoin="round"/>
    <path d="M 83.1113510131836 58.790733337402344 C 78.79649353027344 54.88357925415039 81.5129623413086 58.29867935180664 81.11150360107422 59.11132049560547 C 81.69731140136719 58.01726531982422 80.78849792480469 58.76703643798828 80.98806762695312 59.29168701171875 C 80.66282653808594 58.08088302612305 82.74412536621094 59.527618408203125 83.15573120117188 60.93184280395508 C 82.57608032226562 61.67189025878906 80.90181732177734 58.513954162597656 83.1113510131836 58.790733337402344" stroke-width="0.0" fill="rgb(107, 85, 129)" opacity="0.6910628" stroke="rgb(77, 133, 110)" stroke-opacity="0.29122913" stroke-linecap="round" stroke-linejoin="round"/>
    <path d="M 47.8211669921875 6.749117374420166 C 48.30545425415039 7.35107421875 47.77752685546875 6.736761569976807 48.155250549316406 6.955852031707764 C 49.10958480834961 7.03450870513916 46.96532440185547 7.904202938079834 49.58388137817383 6.413346290588379 C 47.74562072753906 5.683042049407959 47.77111053466797 6.542959213256836 48.71794509887695 7.186005115509033 C 47.27618408203125 6.436784744262695 48.68199157714844 7.504090309143066 47.8211669921875 6.749117374420166" stroke-width="0.0" fill="rgb(255, 255, 255)" opacity="0.41707382" stroke="rgb(156, 35, 74)" stroke-opacity="0.36636186" stroke-linecap="round" stroke-linejoin="round"/>
    <path d="M 51.03472137451172 5.768715858459473 C 51.2981071472168 5.654872894287109 51.19773483276367 8.881858825683594 45.431365966796875 7.926930904388428 C 45.61246871948242 8.057271957397461 42.255157470703125 5.904892921447754 44.79846954345703 3.6706347465515137 C 47.08584976196289 0.8674607872962952 43.924930572509766 8.426436424255371 47.896278381347656 -6.352662563323975 C 54.14506912231445 2.2867016792297363 54.23501205444336 7.5536723136901855 51.03472137451172 5.768715858459473" stroke-width="0.0" fill="rgb(255, 255, 255)" opacity="0.02221462" stroke="rgb(116, 200, 50)" stroke-opacity="0.5142344" stroke-linecap="round" stroke-linejoin="round"/>
    <path d="M 49.34526443481445 5.83836555480957 C 49.28506851196289 2.2192957401275635 49.39927291870117 8.962855339050293 49.25361633300781 4.19652795791626 C 49.98646926879883 4.830945014953613 49.589881896972656 4.56907320022583 47.74256134033203 5.26052713394165 C 46.46736526489258 3.39992094039917 49.79747009277344 7.876446723937988 49.946868896484375 1.2555220127105713 C 49.104740142822266 7.145209312438965 49.01485061645508 8.152237892150879 49.34526443481445 5.83836555480957" stroke-width="0.0" fill="rgb(255, 255, 238)" opacity="0.7974721" stroke="rgb(151, 11, 154)" stroke-opacity="0.17052412" stroke-linecap="round" stroke-linejoin="round"/>
  </g>
</svg>
